<?xml version="1.0" ?><!DOCTYPE svg  PUBLIC '-//W3C//DTD SVG 1.1//EN'  'http://www.w3.org/Graphics/SVG/1.1/DTD/svg11.dtd'><svg enable-background="new 0 0 35 35" id="Layer_1" version="1.1" viewBox="0 0 35 35" xml:space="preserve" xmlns="http://www.w3.org/2000/svg" xmlns:xlink="http://www.w3.org/1999/xlink"><g><path d="M10.2,16.5H3.5v-7c0-0.6-0.4-1-1-1c-0.6,0-1,0.4-1,1v16c0,0.6,0.4,1,1,1c0.6,0,1-0.4,1-1v-5h7v5c0,0.6,0.4,1,1,1   c0.6,0,1-0.4,1-1c0-0.2,0-7,0-6.7C12.5,17.5,11.5,16.5,10.2,16.5z"/><path d="M32.5,8.5c-0.6,0-1,0.4-1,1v7h-6.7c-1.3,0-2.3,1-2.3,2.3c0,0.1,0,6.8,0,6.7c0,0.6,0.4,1,1,1c0.6,0,1-0.4,1-1v-5h7v5   c0,0.6,0.4,1,1,1c0.6,0,1-0.4,1-1v-16C33.5,8.9,33.1,8.5,32.5,8.5z"/><path d="M18.5,24.5v-11h4c2.2,0,4-1.8,4-4c-0.8,0-18.7,0-18,0c0,2.2,1.8,4,4,4h4v11c-1.1,0-2,0.9-2,2h6   C20.5,25.4,19.6,24.5,18.5,24.5z"/></g></svg>